<svg xmlns="http://www.w3.org/2000/svg" width="1440" height="1740" viewBox="0 0 1440 1740" role="img" aria-labelledby="v34-title v34-description">
<title id="v34-title">Building a faster Python re: corrected Zig has 408 fewer differences but is not yet a compatible replacement</title>
<desc id="v34-description">Against the frozen 31,237-case Python reference, corrected Zig has 1,764 observed compatibility differences, 3,711 confirmed passes, and 13 real test workers. The earlier Zig had 2,172 differences: an actual improvement of 408. Rust has 1,036 differences and C has 1,230. No replacement is compatible. Six first-party engine families have independently owned source. Runtime no-delegation is NOT ESTABLISHED. Speed, memory, confidence intervals and undefined behavior are NOT MEASURED. The 4,194,304-case expanded holdout remains unopened and ungenerated. Fifty extra Python signature checks have not run and are not in the denominator. Exactly 157 evidence owners and 162 history references are authenticated without inflating any matching report.</desc>
<style>text{font-family:system-ui,-apple-system,BlinkMacSystemFont,"Segoe UI",sans-serif}.title{font-size:27px;font-weight:760;fill:#16324f}.heading{font-size:19px;font-weight:750;fill:#16324f}.body{font-size:14px;fill:#42556c}.name{font-size:15px;font-weight:710;fill:#16324f}.pass{font-size:12px;font-weight:750;fill:#00794c}.fail{font-size:12px;font-weight:750;fill:#a75c13}.history{font-size:12px;font-weight:740;fill:#596b81}.pending{font-size:12px;font-weight:740;fill:#53667b}.big{font-size:21px;font-weight:760;fill:#16324f}.small{font-size:11px;fill:#42556c}.foot{font-size:10px;fill:#53667b}</style>
<rect width="1440" height="1740" rx="22" fill="#f4f7fb"/>
<text x="44" y="54" class="title">Can we build a faster replacement for Python re?</text>
<text x="46" y="82" class="body">Corrected Zig improved by 408 differences, but no candidate yet matches Python re. Speed has NOT BEEN MEASURED.</text>
<rect x="44" y="100" width="184" height="82" rx="11" fill="#fff" stroke="#dae4ee"/>
<text x="53" y="133" class="big">31,237</text>
<text x="53" y="159" class="small">original reference checks</text>
<rect x="239" y="100" width="184" height="82" rx="11" fill="#fff" stroke="#dae4ee"/>
<text x="248" y="133" class="big">0</text>
<text x="248" y="159" class="small">compatible replacements</text>
<rect x="434" y="100" width="184" height="82" rx="11" fill="#fff" stroke="#dae4ee"/>
<text x="443" y="133" class="big">1,036</text>
<text x="443" y="159" class="small">current Rust differences</text>
<rect x="629" y="100" width="184" height="82" rx="11" fill="#fff" stroke="#dae4ee"/>
<text x="638" y="133" class="big">1,230</text>
<text x="638" y="159" class="small">current C differences</text>
<rect x="824" y="100" width="184" height="82" rx="11" fill="#fff" stroke="#dae4ee"/>
<text x="833" y="133" class="big">1,764</text>
<text x="833" y="159" class="small">new tested Zig differences</text>
<rect x="1019" y="100" width="184" height="82" rx="11" fill="#fff" stroke="#dae4ee"/>
<text x="1028" y="133" class="big">408 fewer</text>
<text x="1028" y="159" class="small">Zig vs. previous version</text>
<rect x="1214" y="100" width="184" height="82" rx="11" fill="#fff" stroke="#dae4ee"/>
<text x="1223" y="133" class="big">157 / 162</text>
<text x="1223" y="159" class="small">evidence / references</text>
<rect x="44" y="201" width="1352" height="476" rx="15" fill="#fff" stroke="#dae4ee"/>
<text x="64" y="235" class="heading">1. Overall: can any candidate replace Python re?</text>
<text x="66" y="259" class="body">Compatibility differences against the same frozen original Python tests. Lower is better; only zero qualifies.</text>
<text x="65" y="284" class="small">Compatibility only. These bars are not speed, benchmark rankings, or percentages.</text>
<text x="67" y="319" class="name">Python re — original reference</text>
<text x="1370" y="319" class="pass" text-anchor="end">COMPATIBLE REFERENCE</text>
<rect x="68" y="330" width="620" height="11" rx="5" fill="#edf1f5"/>
<rect x="68" y="330" width="0" height="11" rx="5" fill="#0b8d61"/>
<text x="704" y="341" class="small">0 differences</text>
<text x="68" y="360" class="small">All 31,237 original reference checks pass.</text>
<text x="67" y="389" class="name">Rust — current from-scratch candidate</text>
<text x="1370" y="389" class="fail" text-anchor="end">NOT COMPATIBLE</text>
<rect x="68" y="400" width="620" height="11" rx="5" fill="#edf1f5"/>
<rect x="68" y="400" width="296" height="11" rx="5" fill="#b77a36"/>
<text x="704" y="411" class="small">1,036 differences</text>
<text x="68" y="430" class="small">13 actual workers; 1,036 differences; 8,965 confirmed passing checks.</text>
<text x="67" y="459" class="name">C — current from-scratch candidate</text>
<text x="1370" y="459" class="fail" text-anchor="end">NOT COMPATIBLE</text>
<rect x="68" y="470" width="620" height="11" rx="5" fill="#edf1f5"/>
<rect x="68" y="470" width="351" height="11" rx="5" fill="#b77a36"/>
<text x="704" y="481" class="small">1,230 differences</text>
<text x="68" y="500" class="small">13 actual workers; 1,230 differences; 7,325 confirmed passing checks.</text>
<text x="67" y="529" class="name">Zig — newly corrected and fully tested</text>
<text x="1370" y="529" class="fail" text-anchor="end">NOT COMPATIBLE</text>
<rect x="68" y="540" width="620" height="11" rx="5" fill="#edf1f5"/>
<rect x="68" y="540" width="504" height="11" rx="5" fill="#b77a36"/>
<text x="704" y="551" class="small">1,764 differences</text>
<text x="68" y="570" class="small">13 actual workers; 1,764 differences; 3,711 confirmed passing checks.</text>
<text x="67" y="599" class="name">Zig — earlier fully tested version</text>
<text x="1370" y="599" class="history" text-anchor="end">HISTORICAL; NOT COMPATIBLE</text>
<rect x="68" y="610" width="620" height="11" rx="5" fill="#edf1f5"/>
<rect x="68" y="610" width="620" height="11" rx="5" fill="#8390a0"/>
<text x="704" y="621" class="small">2,172 differences</text>
<text x="68" y="640" class="small">Historical only: 2,172 differences; 2,847 confirmed passing checks.</text>
<rect x="44" y="695" width="1352" height="260" rx="15" fill="#fff" stroke="#dae4ee"/>
<text x="64" y="730" class="heading">2. What the new Zig experiment actually established</text>
<text x="67" y="759" class="body">The corrected engine was built from the project’s own source in two independent phases.</text>
<text x="67" y="784" class="body">All 26 actual build and inspection processes succeeded; both native roles reproduced.</text>
<text x="67" y="809" class="body">Thirteen real workers completed all 13 original Python test groups.</text>
<text x="67" y="834" class="body">Zig differences fell from 2,172 to 1,764: 408 fewer, but still not compatible.</text>
<text x="67" y="859" class="body">The published receipt records 3,711 verified passes and no infrastructure failures.</text>
<text x="67" y="884" class="body">The original two Zig native files were restored before evidence publication.</text>
<text x="67" y="909" class="body">Source and build independence are verified; full runtime no-delegation is NOT ESTABLISHED.</text>
<rect x="44" y="972" width="1352" height="305" rx="15" fill="#fff" stroke="#dae4ee"/>
<text x="64" y="1007" class="heading">3. What remains unproven or unmeasured</text>
<text x="68" y="1038" class="name">Compatible replacement</text>
<text x="382" y="1038" class="body">NONE: all three tested current candidates still have differences.</text>
<text x="68" y="1072" class="name">Faster than Python re</text>
<text x="382" y="1072" class="body">NOT MEASURED: correctness must pass before performance tests.</text>
<text x="68" y="1106" class="name">Memory and statistical confidence</text>
<text x="382" y="1106" class="body">NOT MEASURED: no candidate has qualified for benchmarking.</text>
<text x="68" y="1140" class="name">Runtime no-delegation</text>
<text x="382" y="1140" class="body">NOT ESTABLISHED: independent source is not a complete runtime audit.</text>
<text x="68" y="1174" class="name">50 extra Python signature checks</text>
<text x="382" y="1174" class="body">REFERENCE NOT RUN: separate; not added to the 31,237 tests.</text>
<text x="68" y="1208" class="name">4,194,304-case final holdout</text>
<text x="382" y="1208" class="body">NOT OPENED and NOT GENERATED: no hidden cases have run.</text>
<text x="68" y="1242" class="name">Overall winner</text>
<text x="382" y="1242" class="body">NONE: speed, safety, and full compatibility remain unproven.</text>
<rect x="44" y="1294" width="1352" height="308" rx="15" fill="#fff" stroke="#dae4ee"/>
<text x="64" y="1329" class="heading">4. How to interpret the recorded evidence</text>
<text x="67" y="1360" class="body">The reference stays at exactly 31,237 checks, 13 original suites and 13 named private waivers.</text>
<text x="67" y="1386" class="body">The new matching receipt is a durable publication PASS, but the Zig matching result is FAIL.</text>
<text x="67" y="1412" class="body">155 existing evidence owners + one failure archive + one distinct receipt = 157 owners.</text>
<text x="67" y="1438" class="body">160 previous authenticated history references + two genuine new owners = 162 references.</text>
<text x="67" y="1464" class="body">The compressed matching evidence was streaming-hashed, not inflated or loaded into memory.</text>
<text x="67" y="1490" class="body">No graph process ran a candidate, compiler, performance clock, or additional Python reference.</text>
<text x="67" y="1516" class="body">No hidden holdout case was generated, read, or benchmarked; no winner was selected.</text>
<text x="67" y="1542" class="body">Runtime delegation, confidence intervals, memory and undefined behavior remain unestablished.</text>
<text x="47" y="1640" class="foot">Inputs SHA-256: d191ad36dd230b97c3d017f0d775a185c0a7f449adb27f7412c54c4d4308c8fc</text>
<text x="47" y="1661" class="foot">Renderer SHA-256: cf4f7b0749d0e3aa6c15d4e5444762441265773fbb90c1ebbceff0f65e3e841f</text>
<text x="47" y="1682" class="foot">Actual Zig matching failure archive SHA-256: ab857c82369ea0c1a443d2d140c8009d7f4b5216b5ee6a0bb4e9280000cb9d6b</text>
<text x="47" y="1703" class="foot">Actual distinct matching receipt SHA-256: 40be94851ae23d8c4a9d2ac759d28231605247a499b0703e727c757d25b2fb96</text>
</svg>
