<svg xmlns="http://www.w3.org/2000/svg" width="1140" height="822" viewBox="0 0 1140 822" role="img" aria-label="Overall results across the test sets"><rect width="100%" height="100%" fill="#f8fafc"/><style>text{font-family:system-ui,-apple-system,Segoe UI,sans-serif;fill:#172033}.title{font-size:23px;font-weight:700}.sub{font-size:13px;fill:#526076}.head{font-size:15px;font-weight:700}.label{font-size:12px}.small{font-size:11px;fill:#526076}.value{font-size:12px;font-weight:700}</style><text x="28" y="38" class="title">Overall results across the test sets</text><text x="28" y="61" class="sub">1× is Python re. Each row shows overall speed, the measured 95% range, clearly faster tasks, and large slowdowns.</text><line x1="266" y1="105" x2="266" y2="800" stroke="#cbd5e1" stroke-width="1"/><text x="266" y="97" class="small" text-anchor="middle">0.0001×</text><line x1="359" y1="105" x2="359" y2="800" stroke="#cbd5e1" stroke-width="1"/><text x="359" y="97" class="small" text-anchor="middle">0.001×</text><line x1="452" y1="105" x2="452" y2="800" stroke="#cbd5e1" stroke-width="1"/><text x="452" y="97" class="small" text-anchor="middle">0.01×</text><line x1="545" y1="105" x2="545" y2="800" stroke="#cbd5e1" stroke-width="1"/><text x="545" y="97" class="small" text-anchor="middle">0.1×</text><line x1="638" y1="105" x2="638" y2="800" stroke="#334155" stroke-width="2"/><text x="638" y="97" class="small" text-anchor="middle">1× baseline</text><line x1="731" y1="105" x2="731" y2="800" stroke="#cbd5e1" stroke-width="1"/><text x="731" y="97" class="small" text-anchor="middle">10×</text><line x1="824" y1="105" x2="824" y2="800" stroke="#cbd5e1" stroke-width="1"/><text x="824" y="97" class="small" text-anchor="middle">100×</text><text x="28" y="135" class="small">Practice tasks</text><text x="28" y="153" class="value" fill="#0284c7">Native C engine</text><line x1="650" y1="142" x2="650" y2="142" stroke="#0284c7" stroke-width="5" stroke-linecap="round"/><circle cx="650" cy="142" r="5" fill="#0284c7"/><text x="850" y="139" class="head">1.34× overall</text><text x="850" y="156" class="small">2,489/3,144 clearly faster · 241 large slowdowns</text><text x="28" y="191" class="small">Practice tasks</text><text x="28" y="209" class="value" fill="#0f766e">Zig engine</text><line x1="607" y1="198" x2="607" y2="198" stroke="#0f766e" stroke-width="5" stroke-linecap="round"/><circle cx="607" cy="198" r="5" fill="#0f766e"/><text x="850" y="195" class="head">0.47× overall</text><text x="850" y="212" class="small">353/3,144 clearly faster · 2,525 large slowdowns</text><text x="28" y="247" class="small">Practice tasks</text><text x="28" y="265" class="value" fill="#d97706">Rust engine</text><line x1="560" y1="254" x2="560" y2="254" stroke="#d97706" stroke-width="5" stroke-linecap="round"/><circle cx="560" cy="254" r="5" fill="#d97706"/><text x="850" y="251" class="head">0.15× overall</text><text x="850" y="268" class="small">166/3,144 clearly faster · 2,948 large slowdowns</text><text x="28" y="303" class="small">Practice tasks</text><text x="28" y="321" class="value" fill="#7c3aed">Python engine</text><line x1="486" y1="310" x2="486" y2="310" stroke="#7c3aed" stroke-width="5" stroke-linecap="round"/><circle cx="486" cy="310" r="5" fill="#7c3aed"/><text x="850" y="307" class="head">0.023× overall</text><text x="850" y="324" class="small">92/3,144 clearly faster · 3,021 large slowdowns</text><text x="28" y="359" class="small">Holdout tasks</text><text x="28" y="377" class="value" fill="#0284c7">Native C engine</text><line x1="650" y1="366" x2="650" y2="366" stroke="#0284c7" stroke-width="5" stroke-linecap="round"/><circle cx="650" cy="366" r="5" fill="#0284c7"/><text x="850" y="363" class="head">1.35× overall</text><text x="850" y="380" class="small">2,482/3,144 clearly faster · 226 large slowdowns</text><text x="28" y="415" class="small">Holdout tasks</text><text x="28" y="433" class="value" fill="#0f766e">Zig engine</text><line x1="608" y1="422" x2="608" y2="422" stroke="#0f766e" stroke-width="5" stroke-linecap="round"/><circle cx="608" cy="422" r="5" fill="#0f766e"/><text x="850" y="419" class="head">0.48× overall</text><text x="850" y="436" class="small">370/3,144 clearly faster · 2,486 large slowdowns</text><text x="28" y="471" class="small">Holdout tasks</text><text x="28" y="489" class="value" fill="#d97706">Rust engine</text><line x1="561" y1="478" x2="561" y2="478" stroke="#d97706" stroke-width="5" stroke-linecap="round"/><circle cx="561" cy="478" r="5" fill="#d97706"/><text x="850" y="475" class="head">0.15× overall</text><text x="850" y="492" class="small">167/3,144 clearly faster · 2,948 large slowdowns</text><text x="28" y="527" class="small">Holdout tasks</text><text x="28" y="545" class="value" fill="#7c3aed">Python engine</text><line x1="487" y1="534" x2="488" y2="534" stroke="#7c3aed" stroke-width="5" stroke-linecap="round"/><circle cx="488" cy="534" r="5" fill="#7c3aed"/><text x="850" y="531" class="head">0.024× overall</text><text x="850" y="548" class="small">86/3,144 clearly faster · 3,021 large slowdowns</text><text x="28" y="583" class="small">All tasks</text><text x="28" y="601" class="value" fill="#0284c7">Native C engine</text><line x1="650" y1="590" x2="650" y2="590" stroke="#0284c7" stroke-width="5" stroke-linecap="round"/><circle cx="650" cy="590" r="5" fill="#0284c7"/><text x="850" y="587" class="head">1.35× overall</text><text x="850" y="604" class="small">4,971/6,288 clearly faster · 467 large slowdowns</text><text x="28" y="639" class="small">All tasks</text><text x="28" y="657" class="value" fill="#0f766e">Zig engine</text><line x1="608" y1="646" x2="608" y2="646" stroke="#0f766e" stroke-width="5" stroke-linecap="round"/><circle cx="608" cy="646" r="5" fill="#0f766e"/><text x="850" y="643" class="head">0.47× overall</text><text x="850" y="660" class="small">723/6,288 clearly faster · 5,011 large slowdowns</text><text x="28" y="695" class="small">All tasks</text><text x="28" y="713" class="value" fill="#d97706">Rust engine</text><line x1="561" y1="702" x2="561" y2="702" stroke="#d97706" stroke-width="5" stroke-linecap="round"/><circle cx="561" cy="702" r="5" fill="#d97706"/><text x="850" y="699" class="head">0.15× overall</text><text x="850" y="716" class="small">333/6,288 clearly faster · 5,896 large slowdowns</text><text x="28" y="751" class="small">All tasks</text><text x="28" y="769" class="value" fill="#7c3aed">Python engine</text><line x1="487" y1="758" x2="487" y2="758" stroke="#7c3aed" stroke-width="5" stroke-linecap="round"/><circle cx="487" cy="758" r="5" fill="#7c3aed"/><text x="850" y="755" class="head">0.024× overall</text><text x="850" y="772" class="small">178/6,288 clearly faster · 6,042 large slowdowns</text></svg>
