<svg xmlns="http://www.w3.org/2000/svg" width="1220" height="793" viewBox="0 0 1220 793" role="img" aria-label="Overall results across all test sets"><rect width="100%" height="100%" fill="#fff"/><style>text{font-family:system-ui,-apple-system,Segoe UI,sans-serif;fill:#172033}.title{font-size:24px;font-weight:700}.sub{font-size:13px;fill:#52627a}.head{font-size:16px;font-weight:700}.label{font-size:12px}.small{font-size:11px;fill:#52627a}.value{font-size:12px;font-weight:700}.tick{font-size:11px;fill:#64748b}.grid{stroke:#dde5ed;stroke-width:1}.base{stroke:#64748b;stroke-width:1.4}</style><text x="24" y="38" class="title">Overall results across all test sets</text><text x="24" y="61" class="sub">1× is Python re; farther right is faster. Each row shows overall speed, measured 95% range, clearly faster tasks, and large slowdowns.</text><line x1="268.0" y1="100" x2="268.0" y2="775" class="grid"/><text x="268.0" y="94" class="tick" text-anchor="middle">.01×</text><line x1="354.5" y1="100" x2="354.5" y2="775" class="grid"/><text x="354.5" y="94" class="tick" text-anchor="middle">.03×</text><line x1="449.3" y1="100" x2="449.3" y2="775" class="grid"/><text x="449.3" y="94" class="tick" text-anchor="middle">.1×</text><line x1="535.9" y1="100" x2="535.9" y2="775" class="grid"/><text x="535.9" y="94" class="tick" text-anchor="middle">.3×</text><line x1="630.7" y1="100" x2="630.7" y2="775" class="base"/><text x="630.7" y="94" class="tick" text-anchor="middle">1× Python re</text><line x1="717.2" y1="100" x2="717.2" y2="775" class="grid"/><text x="717.2" y="94" class="tick" text-anchor="middle">3×</text><line x1="812.0" y1="100" x2="812.0" y2="775" class="grid"/><text x="812.0" y="94" class="tick" text-anchor="middle">10×</text><text x="24" y="125" class="small">Practice tasks</text><text x="24" y="143" class="value">Zig / rebar</text><line x1="668.2" y1="131" x2="668.3" y2="131" stroke="#059669" stroke-width="6" stroke-linecap="round"/><circle cx="668.3" cy="131" r="5" fill="#059669"/><text x="842" y="129" class="head">1.61× overall</text><text x="842" y="146" class="small">8,883/10,312 clearly faster · 112 large slowdowns</text><text x="24" y="179" class="small">Practice tasks</text><text x="24" y="197" class="value">Native C engine</text><line x1="650.7" y1="185" x2="650.7" y2="185" stroke="#2563eb" stroke-width="6" stroke-linecap="round"/><circle cx="650.7" cy="185" r="5" fill="#2563eb"/><text x="842" y="183" class="head">1.29× overall</text><text x="842" y="200" class="small">7,422/10,312 clearly faster · 1,055 large slowdowns</text><text x="24" y="233" class="small">Practice tasks</text><text x="24" y="251" class="value">Rust engine</text><line x1="625.5" y1="239" x2="625.6" y2="239" stroke="#7c3aed" stroke-width="6" stroke-linecap="round"/><circle cx="625.5" cy="239" r="5" fill="#7c3aed"/><text x="842" y="237" class="head">0.94× overall</text><text x="842" y="254" class="small">3,671/10,312 clearly faster · 3,723 large slowdowns</text><text x="24" y="287" class="small">Practice tasks</text><text x="24" y="305" class="value">Python engine</text><line x1="330.4" y1="293" x2="330.5" y2="293" stroke="#b45309" stroke-width="6" stroke-linecap="round"/><circle cx="330.4" cy="293" r="5" fill="#b45309"/><text x="842" y="291" class="head">0.022× overall</text><text x="842" y="308" class="small">286/10,312 clearly faster · 9,871 large slowdowns</text><text x="24" y="341" class="small">Holdout tasks</text><text x="24" y="359" class="value">Zig / rebar</text><line x1="668.1" y1="347" x2="668.2" y2="347" stroke="#059669" stroke-width="6" stroke-linecap="round"/><circle cx="668.1" cy="347" r="5" fill="#059669"/><text x="842" y="345" class="head">1.61× overall</text><text x="842" y="362" class="small">8,868/10,312 clearly faster · 105 large slowdowns</text><text x="24" y="395" class="small">Holdout tasks</text><text x="24" y="413" class="value">Native C engine</text><line x1="649.5" y1="401" x2="649.6" y2="401" stroke="#2563eb" stroke-width="6" stroke-linecap="round"/><circle cx="649.6" cy="401" r="5" fill="#2563eb"/><text x="842" y="399" class="head">1.27× overall</text><text x="842" y="416" class="small">7,369/10,312 clearly faster · 1,116 large slowdowns</text><text x="24" y="449" class="small">Holdout tasks</text><text x="24" y="467" class="value">Rust engine</text><line x1="624.5" y1="455" x2="624.6" y2="455" stroke="#7c3aed" stroke-width="6" stroke-linecap="round"/><circle cx="624.5" cy="455" r="5" fill="#7c3aed"/><text x="842" y="453" class="head">0.93× overall</text><text x="842" y="470" class="small">3,623/10,312 clearly faster · 3,905 large slowdowns</text><text x="24" y="503" class="small">Holdout tasks</text><text x="24" y="521" class="value">Python engine</text><line x1="330.7" y1="509" x2="330.7" y2="509" stroke="#b45309" stroke-width="6" stroke-linecap="round"/><circle cx="330.7" cy="509" r="5" fill="#b45309"/><text x="842" y="507" class="head">0.022× overall</text><text x="842" y="524" class="small">271/10,312 clearly faster · 9,884 large slowdowns</text><text x="24" y="557" class="small">All tasks</text><text x="24" y="575" class="value">Zig / rebar</text><line x1="668.2" y1="563" x2="668.2" y2="563" stroke="#059669" stroke-width="6" stroke-linecap="round"/><circle cx="668.2" cy="563" r="5" fill="#059669"/><text x="842" y="561" class="head">1.61× overall</text><text x="842" y="578" class="small">17,751/20,624 clearly faster · 217 large slowdowns</text><text x="24" y="611" class="small">All tasks</text><text x="24" y="629" class="value">Native C engine</text><line x1="650.1" y1="617" x2="650.2" y2="617" stroke="#2563eb" stroke-width="6" stroke-linecap="round"/><circle cx="650.1" cy="617" r="5" fill="#2563eb"/><text x="842" y="615" class="head">1.28× overall</text><text x="842" y="632" class="small">14,791/20,624 clearly faster · 2,171 large slowdowns</text><text x="24" y="665" class="small">All tasks</text><text x="24" y="683" class="value">Rust engine</text><line x1="625.0" y1="671" x2="625.1" y2="671" stroke="#7c3aed" stroke-width="6" stroke-linecap="round"/><circle cx="625.0" cy="671" r="5" fill="#7c3aed"/><text x="842" y="669" class="head">0.93× overall</text><text x="842" y="686" class="small">7,294/20,624 clearly faster · 7,628 large slowdowns</text><text x="24" y="719" class="small">All tasks</text><text x="24" y="737" class="value">Python engine</text><line x1="330.5" y1="725" x2="330.6" y2="725" stroke="#b45309" stroke-width="6" stroke-linecap="round"/><circle cx="330.6" cy="725" r="5" fill="#b45309"/><text x="842" y="723" class="head">0.022× overall</text><text x="842" y="740" class="small">557/20,624 clearly faster · 19,755 large slowdowns</text></svg>
