<svg xmlns="http://www.w3.org/2000/svg" width="1320" height="2433" viewBox="0 0 1320 2433" role="img" aria-label="Temporary memory used while matching">
<title>Temporary memory used while matching</title>
<desc>PRACTICE ONLY. 624 practice tasks and 7 paired runs. The unseen test has not been opened. Python-traced temporary memory only · median of all 624 practice cases · lower is better</desc>
<rect width="100%" height="100%" fill="#ffffff"/>
<style>text{font-family:system-ui,-apple-system,BlinkMacSystemFont,"Segoe UI",sans-serif;fill:#172033}.title{font-size:25px;font-weight:750}.sub{font-size:13px;fill:#52627a}.head{font-size:15px;font-weight:700}.label{font-size:12px}.small{font-size:11px;fill:#52627a}.value{font-size:12px;font-weight:700}.tick{font-size:10.5px;fill:#64748b}.banner{font-size:12px;font-weight:700;fill:#92400e}.grid{stroke:#e2e8f0;stroke-width:1}.base{stroke:#475569;stroke-width:1.7}.panel{fill:#f8fafc;stroke:#e2e8f0;stroke-width:1}</style>
<text x="26" y="39" class="title">Temporary memory used while matching</text>
<text x="26" y="63" class="sub">Python-traced temporary memory only · median of all 624 practice cases · lower is better</text>
<rect x="20" y="78" width="1280" height="34" rx="7" fill="#fffbeb" stroke="#fcd34d"/>
<text x="33" y="100" class="banner">PRACTICE ONLY — the final unseen test has not been opened</text>
<rect x="18" y="129" width="1284" height="439" rx="9" class="panel"/>
<text x="29" y="149" class="head">Rust: native slot fastpath · Python-traced temporary memory</text>
<line x1="337.00" y1="180" x2="337.00" y2="569" class="grid"/>
<text x="337.00" y="172" text-anchor="middle" class="tick">0.06×</text>
<line x1="421.67" y1="180" x2="421.67" y2="569" class="grid"/>
<text x="421.67" y="172" text-anchor="middle" class="tick">0.125×</text>
<line x1="506.33" y1="180" x2="506.33" y2="569" class="grid"/>
<text x="506.33" y="172" text-anchor="middle" class="tick">0.25×</text>
<line x1="591.00" y1="180" x2="591.00" y2="569" class="grid"/>
<text x="591.00" y="172" text-anchor="middle" class="tick">0.5×</text>
<line x1="675.67" y1="180" x2="675.67" y2="569" class="base"/>
<text x="675.67" y="172" text-anchor="middle" class="tick">1× Python</text>
<line x1="760.33" y1="180" x2="760.33" y2="569" class="grid"/>
<text x="760.33" y="172" text-anchor="middle" class="tick">2×</text>
<line x1="845.00" y1="180" x2="845.00" y2="569" class="grid"/>
<text x="845.00" y="172" text-anchor="middle" class="tick">4×</text>
<text x="29" y="208" class="label">Prepare a pattern (compile)</text>
<circle cx="514.05" cy="204" r="5" fill="#047857" stroke="#ffffff" stroke-width="1.2"/>
<text x="862" y="208" class="value">0.266×</text>
<text x="945" y="208" class="small">48 cases · 0 with no traced temporary memory</text>
<text x="29" y="240" class="label">Escape special characters (escape)</text>
<circle cx="669.91" cy="236" r="5" fill="#047857" stroke="#ffffff" stroke-width="1.2"/>
<text x="862" y="240" class="value">0.954×</text>
<text x="945" y="240" class="small">48 cases · 0 with no traced temporary memory</text>
<text x="29" y="272" class="label">Find every match (findall)</text>
<circle cx="519.53" cy="268" r="5" fill="#047857" stroke="#ffffff" stroke-width="1.2"/>
<text x="862" y="272" class="value">0.279×</text>
<text x="945" y="272" class="small">80 cases · 0 with no traced temporary memory</text>
<text x="29" y="304" class="label">Stream each match (finditer)</text>
<circle cx="633.73" cy="300" r="5" fill="#047857" stroke="#ffffff" stroke-width="1.2"/>
<text x="862" y="304" class="value">0.709×</text>
<text x="945" y="304" class="small">67 cases · 0 with no traced temporary memory</text>
<text x="29" y="336" class="label">Match the entire input (fullmatch)</text>
<circle cx="337.00" cy="332" r="5" fill="#047857" stroke="#ffffff" stroke-width="1.2"/>
<text x="862" y="336" class="value">0.060×</text>
<text x="945" y="336" class="small">47 cases · 17 with no traced temporary memory</text>
<text x="29" y="368" class="label">Match at the beginning (match)</text>
<circle cx="407.47" cy="364" r="5" fill="#047857" stroke="#ffffff" stroke-width="1.2"/>
<text x="862" y="368" class="value">0.111×</text>
<text x="945" y="368" class="small">48 cases · 18 with no traced temporary memory</text>
<text x="29" y="400" class="label">Read the match details (match-surface)</text>
<circle cx="532.24" cy="396" r="5" fill="#047857" stroke="#ffffff" stroke-width="1.2"/>
<text x="862" y="400" class="value">0.309×</text>
<text x="945" y="400" class="small">48 cases · 23 with no traced temporary memory</text>
<text x="29" y="432" class="label">Scan repeated matches (scanner)</text>
<circle cx="633.86" cy="428" r="5" fill="#047857" stroke="#ffffff" stroke-width="1.2"/>
<text x="862" y="432" class="value">0.710×</text>
<text x="945" y="432" class="small">48 cases · 0 with no traced temporary memory</text>
<text x="29" y="464" class="label">Search for a match (search)</text>
<circle cx="400.88" cy="460" r="5" fill="#047857" stroke="#ffffff" stroke-width="1.2"/>
<text x="862" y="464" class="value">0.105×</text>
<text x="945" y="464" class="small">48 cases · 9 with no traced temporary memory</text>
<text x="29" y="496" class="label">Split around matches (split)</text>
<circle cx="534.43" cy="492" r="5" fill="#047857" stroke="#ffffff" stroke-width="1.2"/>
<text x="862" y="496" class="value">0.315×</text>
<text x="945" y="496" class="small">47 cases · 0 with no traced temporary memory</text>
<text x="29" y="528" class="label">Replace matches (sub)</text>
<circle cx="463.07" cy="524" r="5" fill="#047857" stroke="#ffffff" stroke-width="1.2"/>
<text x="862" y="528" class="value">0.175×</text>
<text x="945" y="528" class="small">48 cases · 0 with no traced temporary memory</text>
<text x="29" y="560" class="label">Replace and count matches (subn)</text>
<circle cx="450.08" cy="556" r="5" fill="#047857" stroke="#ffffff" stroke-width="1.2"/>
<text x="862" y="560" class="value">0.158×</text>
<text x="945" y="560" class="small">47 cases · 0 with no traced temporary memory</text>
<rect x="18" y="576" width="1284" height="439" rx="9" class="panel"/>
<text x="29" y="596" class="head">Corrected Rust baseline · Python-traced temporary memory</text>
<line x1="337.00" y1="627" x2="337.00" y2="1016" class="grid"/>
<text x="337.00" y="619" text-anchor="middle" class="tick">0.06×</text>
<line x1="421.67" y1="627" x2="421.67" y2="1016" class="grid"/>
<text x="421.67" y="619" text-anchor="middle" class="tick">0.125×</text>
<line x1="506.33" y1="627" x2="506.33" y2="1016" class="grid"/>
<text x="506.33" y="619" text-anchor="middle" class="tick">0.25×</text>
<line x1="591.00" y1="627" x2="591.00" y2="1016" class="grid"/>
<text x="591.00" y="619" text-anchor="middle" class="tick">0.5×</text>
<line x1="675.67" y1="627" x2="675.67" y2="1016" class="base"/>
<text x="675.67" y="619" text-anchor="middle" class="tick">1× Python</text>
<line x1="760.33" y1="627" x2="760.33" y2="1016" class="grid"/>
<text x="760.33" y="619" text-anchor="middle" class="tick">2×</text>
<line x1="845.00" y1="627" x2="845.00" y2="1016" class="grid"/>
<text x="845.00" y="619" text-anchor="middle" class="tick">4×</text>
<text x="29" y="655" class="label">Prepare a pattern (compile)</text>
<circle cx="514.05" cy="651" r="5" fill="#047857" stroke="#ffffff" stroke-width="1.2"/>
<text x="862" y="655" class="value">0.266×</text>
<text x="945" y="655" class="small">48 cases · 0 with no traced temporary memory</text>
<text x="29" y="687" class="label">Escape special characters (escape)</text>
<circle cx="669.91" cy="683" r="5" fill="#047857" stroke="#ffffff" stroke-width="1.2"/>
<text x="862" y="687" class="value">0.954×</text>
<text x="945" y="687" class="small">48 cases · 0 with no traced temporary memory</text>
<text x="29" y="719" class="label">Find every match (findall)</text>
<circle cx="519.53" cy="715" r="5" fill="#047857" stroke="#ffffff" stroke-width="1.2"/>
<text x="862" y="719" class="value">0.279×</text>
<text x="945" y="719" class="small">80 cases · 0 with no traced temporary memory</text>
<text x="29" y="751" class="label">Stream each match (finditer)</text>
<circle cx="630.80" cy="747" r="5" fill="#047857" stroke="#ffffff" stroke-width="1.2"/>
<text x="862" y="751" class="value">0.693×</text>
<text x="945" y="751" class="small">67 cases · 0 with no traced temporary memory</text>
<text x="29" y="783" class="label">Match the entire input (fullmatch)</text>
<circle cx="337.00" cy="779" r="5" fill="#047857" stroke="#ffffff" stroke-width="1.2"/>
<text x="862" y="783" class="value">0.060×</text>
<text x="945" y="783" class="small">47 cases · 17 with no traced temporary memory</text>
<text x="29" y="815" class="label">Match at the beginning (match)</text>
<circle cx="407.47" cy="811" r="5" fill="#047857" stroke="#ffffff" stroke-width="1.2"/>
<text x="862" y="815" class="value">0.111×</text>
<text x="945" y="815" class="small">48 cases · 18 with no traced temporary memory</text>
<text x="29" y="847" class="label">Read the match details (match-surface)</text>
<circle cx="633.11" cy="843" r="5" fill="#047857" stroke="#ffffff" stroke-width="1.2"/>
<text x="862" y="847" class="value">0.706×</text>
<text x="945" y="847" class="small">48 cases · 0 with no traced temporary memory</text>
<text x="29" y="879" class="label">Scan repeated matches (scanner)</text>
<circle cx="633.86" cy="875" r="5" fill="#047857" stroke="#ffffff" stroke-width="1.2"/>
<text x="862" y="879" class="value">0.710×</text>
<text x="945" y="879" class="small">48 cases · 0 with no traced temporary memory</text>
<text x="29" y="911" class="label">Search for a match (search)</text>
<circle cx="412.09" cy="907" r="5" fill="#047857" stroke="#ffffff" stroke-width="1.2"/>
<text x="862" y="911" class="value">0.116×</text>
<text x="945" y="911" class="small">48 cases · 9 with no traced temporary memory</text>
<text x="29" y="943" class="label">Split around matches (split)</text>
<circle cx="534.43" cy="939" r="5" fill="#047857" stroke="#ffffff" stroke-width="1.2"/>
<text x="862" y="943" class="value">0.315×</text>
<text x="945" y="943" class="small">47 cases · 0 with no traced temporary memory</text>
<text x="29" y="975" class="label">Replace matches (sub)</text>
<circle cx="463.07" cy="971" r="5" fill="#047857" stroke="#ffffff" stroke-width="1.2"/>
<text x="862" y="975" class="value">0.175×</text>
<text x="945" y="975" class="small">48 cases · 0 with no traced temporary memory</text>
<text x="29" y="1007" class="label">Replace and count matches (subn)</text>
<circle cx="458.51" cy="1003" r="5" fill="#047857" stroke="#ffffff" stroke-width="1.2"/>
<text x="862" y="1007" class="value">0.169×</text>
<text x="945" y="1007" class="small">47 cases · 0 with no traced temporary memory</text>
<rect x="18" y="1023" width="1284" height="439" rx="9" class="panel"/>
<text x="29" y="1043" class="head">Rust: native expand cache · Python-traced temporary memory</text>
<line x1="337.00" y1="1074" x2="337.00" y2="1463" class="grid"/>
<text x="337.00" y="1066" text-anchor="middle" class="tick">0.06×</text>
<line x1="421.67" y1="1074" x2="421.67" y2="1463" class="grid"/>
<text x="421.67" y="1066" text-anchor="middle" class="tick">0.125×</text>
<line x1="506.33" y1="1074" x2="506.33" y2="1463" class="grid"/>
<text x="506.33" y="1066" text-anchor="middle" class="tick">0.25×</text>
<line x1="591.00" y1="1074" x2="591.00" y2="1463" class="grid"/>
<text x="591.00" y="1066" text-anchor="middle" class="tick">0.5×</text>
<line x1="675.67" y1="1074" x2="675.67" y2="1463" class="base"/>
<text x="675.67" y="1066" text-anchor="middle" class="tick">1× Python</text>
<line x1="760.33" y1="1074" x2="760.33" y2="1463" class="grid"/>
<text x="760.33" y="1066" text-anchor="middle" class="tick">2×</text>
<line x1="845.00" y1="1074" x2="845.00" y2="1463" class="grid"/>
<text x="845.00" y="1066" text-anchor="middle" class="tick">4×</text>
<text x="29" y="1102" class="label">Prepare a pattern (compile)</text>
<circle cx="514.05" cy="1098" r="5" fill="#047857" stroke="#ffffff" stroke-width="1.2"/>
<text x="862" y="1102" class="value">0.266×</text>
<text x="945" y="1102" class="small">48 cases · 0 with no traced temporary memory</text>
<text x="29" y="1134" class="label">Escape special characters (escape)</text>
<circle cx="669.91" cy="1130" r="5" fill="#047857" stroke="#ffffff" stroke-width="1.2"/>
<text x="862" y="1134" class="value">0.954×</text>
<text x="945" y="1134" class="small">48 cases · 0 with no traced temporary memory</text>
<text x="29" y="1166" class="label">Find every match (findall)</text>
<circle cx="519.53" cy="1162" r="5" fill="#047857" stroke="#ffffff" stroke-width="1.2"/>
<text x="862" y="1166" class="value">0.279×</text>
<text x="945" y="1166" class="small">80 cases · 0 with no traced temporary memory</text>
<text x="29" y="1198" class="label">Stream each match (finditer)</text>
<circle cx="633.73" cy="1194" r="5" fill="#047857" stroke="#ffffff" stroke-width="1.2"/>
<text x="862" y="1198" class="value">0.709×</text>
<text x="945" y="1198" class="small">67 cases · 0 with no traced temporary memory</text>
<text x="29" y="1230" class="label">Match the entire input (fullmatch)</text>
<circle cx="337.00" cy="1226" r="5" fill="#047857" stroke="#ffffff" stroke-width="1.2"/>
<text x="862" y="1230" class="value">0.060×</text>
<text x="945" y="1230" class="small">47 cases · 17 with no traced temporary memory</text>
<text x="29" y="1262" class="label">Match at the beginning (match)</text>
<circle cx="407.47" cy="1258" r="5" fill="#047857" stroke="#ffffff" stroke-width="1.2"/>
<text x="862" y="1262" class="value">0.111×</text>
<text x="945" y="1262" class="small">48 cases · 18 with no traced temporary memory</text>
<text x="29" y="1294" class="label">Read the match details (match-surface)</text>
<circle cx="532.24" cy="1290" r="5" fill="#047857" stroke="#ffffff" stroke-width="1.2"/>
<text x="862" y="1294" class="value">0.309×</text>
<text x="945" y="1294" class="small">48 cases · 23 with no traced temporary memory</text>
<text x="29" y="1326" class="label">Scan repeated matches (scanner)</text>
<circle cx="633.86" cy="1322" r="5" fill="#047857" stroke="#ffffff" stroke-width="1.2"/>
<text x="862" y="1326" class="value">0.710×</text>
<text x="945" y="1326" class="small">48 cases · 0 with no traced temporary memory</text>
<text x="29" y="1358" class="label">Search for a match (search)</text>
<circle cx="400.88" cy="1354" r="5" fill="#047857" stroke="#ffffff" stroke-width="1.2"/>
<text x="862" y="1358" class="value">0.105×</text>
<text x="945" y="1358" class="small">48 cases · 9 with no traced temporary memory</text>
<text x="29" y="1390" class="label">Split around matches (split)</text>
<circle cx="534.43" cy="1386" r="5" fill="#047857" stroke="#ffffff" stroke-width="1.2"/>
<text x="862" y="1390" class="value">0.315×</text>
<text x="945" y="1390" class="small">47 cases · 0 with no traced temporary memory</text>
<text x="29" y="1422" class="label">Replace matches (sub)</text>
<circle cx="463.07" cy="1418" r="5" fill="#047857" stroke="#ffffff" stroke-width="1.2"/>
<text x="862" y="1422" class="value">0.175×</text>
<text x="945" y="1422" class="small">48 cases · 0 with no traced temporary memory</text>
<text x="29" y="1454" class="label">Replace and count matches (subn)</text>
<circle cx="450.08" cy="1450" r="5" fill="#047857" stroke="#ffffff" stroke-width="1.2"/>
<text x="862" y="1454" class="value">0.158×</text>
<text x="945" y="1454" class="small">47 cases · 0 with no traced temporary memory</text>
<rect x="18" y="1470" width="1284" height="439" rx="9" class="panel"/>
<text x="29" y="1490" class="head">Rust: native heap interned attributes · Python-traced temporary memory</text>
<line x1="337.00" y1="1521" x2="337.00" y2="1910" class="grid"/>
<text x="337.00" y="1513" text-anchor="middle" class="tick">0.06×</text>
<line x1="421.67" y1="1521" x2="421.67" y2="1910" class="grid"/>
<text x="421.67" y="1513" text-anchor="middle" class="tick">0.125×</text>
<line x1="506.33" y1="1521" x2="506.33" y2="1910" class="grid"/>
<text x="506.33" y="1513" text-anchor="middle" class="tick">0.25×</text>
<line x1="591.00" y1="1521" x2="591.00" y2="1910" class="grid"/>
<text x="591.00" y="1513" text-anchor="middle" class="tick">0.5×</text>
<line x1="675.67" y1="1521" x2="675.67" y2="1910" class="base"/>
<text x="675.67" y="1513" text-anchor="middle" class="tick">1× Python</text>
<line x1="760.33" y1="1521" x2="760.33" y2="1910" class="grid"/>
<text x="760.33" y="1513" text-anchor="middle" class="tick">2×</text>
<line x1="845.00" y1="1521" x2="845.00" y2="1910" class="grid"/>
<text x="845.00" y="1513" text-anchor="middle" class="tick">4×</text>
<text x="29" y="1549" class="label">Prepare a pattern (compile)</text>
<circle cx="514.05" cy="1545" r="5" fill="#047857" stroke="#ffffff" stroke-width="1.2"/>
<text x="862" y="1549" class="value">0.266×</text>
<text x="945" y="1549" class="small">48 cases · 0 with no traced temporary memory</text>
<text x="29" y="1581" class="label">Escape special characters (escape)</text>
<circle cx="669.91" cy="1577" r="5" fill="#047857" stroke="#ffffff" stroke-width="1.2"/>
<text x="862" y="1581" class="value">0.954×</text>
<text x="945" y="1581" class="small">48 cases · 0 with no traced temporary memory</text>
<text x="29" y="1613" class="label">Find every match (findall)</text>
<circle cx="519.53" cy="1609" r="5" fill="#047857" stroke="#ffffff" stroke-width="1.2"/>
<text x="862" y="1613" class="value">0.279×</text>
<text x="945" y="1613" class="small">80 cases · 0 with no traced temporary memory</text>
<text x="29" y="1645" class="label">Stream each match (finditer)</text>
<circle cx="633.73" cy="1641" r="5" fill="#047857" stroke="#ffffff" stroke-width="1.2"/>
<text x="862" y="1645" class="value">0.709×</text>
<text x="945" y="1645" class="small">67 cases · 0 with no traced temporary memory</text>
<text x="29" y="1677" class="label">Match the entire input (fullmatch)</text>
<circle cx="337.00" cy="1673" r="5" fill="#047857" stroke="#ffffff" stroke-width="1.2"/>
<text x="862" y="1677" class="value">0.060×</text>
<text x="945" y="1677" class="small">47 cases · 17 with no traced temporary memory</text>
<text x="29" y="1709" class="label">Match at the beginning (match)</text>
<circle cx="407.47" cy="1705" r="5" fill="#047857" stroke="#ffffff" stroke-width="1.2"/>
<text x="862" y="1709" class="value">0.111×</text>
<text x="945" y="1709" class="small">48 cases · 18 with no traced temporary memory</text>
<text x="29" y="1741" class="label">Read the match details (match-surface)</text>
<circle cx="633.11" cy="1737" r="5" fill="#047857" stroke="#ffffff" stroke-width="1.2"/>
<text x="862" y="1741" class="value">0.706×</text>
<text x="945" y="1741" class="small">48 cases · 23 with no traced temporary memory</text>
<text x="29" y="1773" class="label">Scan repeated matches (scanner)</text>
<circle cx="633.86" cy="1769" r="5" fill="#047857" stroke="#ffffff" stroke-width="1.2"/>
<text x="862" y="1773" class="value">0.710×</text>
<text x="945" y="1773" class="small">48 cases · 0 with no traced temporary memory</text>
<text x="29" y="1805" class="label">Search for a match (search)</text>
<circle cx="400.88" cy="1801" r="5" fill="#047857" stroke="#ffffff" stroke-width="1.2"/>
<text x="862" y="1805" class="value">0.105×</text>
<text x="945" y="1805" class="small">48 cases · 9 with no traced temporary memory</text>
<text x="29" y="1837" class="label">Split around matches (split)</text>
<circle cx="534.43" cy="1833" r="5" fill="#047857" stroke="#ffffff" stroke-width="1.2"/>
<text x="862" y="1837" class="value">0.315×</text>
<text x="945" y="1837" class="small">47 cases · 0 with no traced temporary memory</text>
<text x="29" y="1869" class="label">Replace matches (sub)</text>
<circle cx="463.07" cy="1865" r="5" fill="#047857" stroke="#ffffff" stroke-width="1.2"/>
<text x="862" y="1869" class="value">0.175×</text>
<text x="945" y="1869" class="small">48 cases · 0 with no traced temporary memory</text>
<text x="29" y="1901" class="label">Replace and count matches (subn)</text>
<circle cx="450.08" cy="1897" r="5" fill="#047857" stroke="#ffffff" stroke-width="1.2"/>
<text x="862" y="1901" class="value">0.158×</text>
<text x="945" y="1901" class="small">47 cases · 0 with no traced temporary memory</text>
<rect x="18" y="1917" width="1284" height="439" rx="9" class="panel"/>
<text x="29" y="1937" class="head">Rust: native heap certified baseline · Python-traced temporary memory</text>
<line x1="337.00" y1="1968" x2="337.00" y2="2357" class="grid"/>
<text x="337.00" y="1960" text-anchor="middle" class="tick">0.06×</text>
<line x1="421.67" y1="1968" x2="421.67" y2="2357" class="grid"/>
<text x="421.67" y="1960" text-anchor="middle" class="tick">0.125×</text>
<line x1="506.33" y1="1968" x2="506.33" y2="2357" class="grid"/>
<text x="506.33" y="1960" text-anchor="middle" class="tick">0.25×</text>
<line x1="591.00" y1="1968" x2="591.00" y2="2357" class="grid"/>
<text x="591.00" y="1960" text-anchor="middle" class="tick">0.5×</text>
<line x1="675.67" y1="1968" x2="675.67" y2="2357" class="base"/>
<text x="675.67" y="1960" text-anchor="middle" class="tick">1× Python</text>
<line x1="760.33" y1="1968" x2="760.33" y2="2357" class="grid"/>
<text x="760.33" y="1960" text-anchor="middle" class="tick">2×</text>
<line x1="845.00" y1="1968" x2="845.00" y2="2357" class="grid"/>
<text x="845.00" y="1960" text-anchor="middle" class="tick">4×</text>
<text x="29" y="1996" class="label">Prepare a pattern (compile)</text>
<circle cx="514.05" cy="1992" r="5" fill="#047857" stroke="#ffffff" stroke-width="1.2"/>
<text x="862" y="1996" class="value">0.266×</text>
<text x="945" y="1996" class="small">48 cases · 0 with no traced temporary memory</text>
<text x="29" y="2028" class="label">Escape special characters (escape)</text>
<circle cx="669.91" cy="2024" r="5" fill="#047857" stroke="#ffffff" stroke-width="1.2"/>
<text x="862" y="2028" class="value">0.954×</text>
<text x="945" y="2028" class="small">48 cases · 0 with no traced temporary memory</text>
<text x="29" y="2060" class="label">Find every match (findall)</text>
<circle cx="539.62" cy="2056" r="5" fill="#047857" stroke="#ffffff" stroke-width="1.2"/>
<text x="862" y="2060" class="value">0.328×</text>
<text x="945" y="2060" class="small">80 cases · 0 with no traced temporary memory</text>
<text x="29" y="2092" class="label">Stream each match (finditer)</text>
<circle cx="639.57" cy="2088" r="5" fill="#047857" stroke="#ffffff" stroke-width="1.2"/>
<text x="862" y="2092" class="value">0.744×</text>
<text x="945" y="2092" class="small">67 cases · 0 with no traced temporary memory</text>
<text x="29" y="2124" class="label">Match the entire input (fullmatch)</text>
<circle cx="430.37" cy="2120" r="5" fill="#047857" stroke="#ffffff" stroke-width="1.2"/>
<text x="862" y="2124" class="value">0.134×</text>
<text x="945" y="2124" class="small">47 cases · 0 with no traced temporary memory</text>
<text x="29" y="2156" class="label">Match at the beginning (match)</text>
<circle cx="443.24" cy="2152" r="5" fill="#047857" stroke="#ffffff" stroke-width="1.2"/>
<text x="862" y="2156" class="value">0.149×</text>
<text x="945" y="2156" class="small">48 cases · 0 with no traced temporary memory</text>
<text x="29" y="2188" class="label">Read the match details (match-surface)</text>
<circle cx="642.92" cy="2184" r="5" fill="#047857" stroke="#ffffff" stroke-width="1.2"/>
<text x="862" y="2188" class="value">0.765×</text>
<text x="945" y="2188" class="small">48 cases · 0 with no traced temporary memory</text>
<text x="29" y="2220" class="label">Scan repeated matches (scanner)</text>
<circle cx="639.45" cy="2216" r="5" fill="#047857" stroke="#ffffff" stroke-width="1.2"/>
<text x="862" y="2220" class="value">0.743×</text>
<text x="945" y="2220" class="small">48 cases · 0 with no traced temporary memory</text>
<text x="29" y="2252" class="label">Search for a match (search)</text>
<circle cx="475.12" cy="2248" r="5" fill="#047857" stroke="#ffffff" stroke-width="1.2"/>
<text x="862" y="2252" class="value">0.194×</text>
<text x="945" y="2252" class="small">48 cases · 0 with no traced temporary memory</text>
<text x="29" y="2284" class="label">Split around matches (split)</text>
<circle cx="544.64" cy="2280" r="5" fill="#047857" stroke="#ffffff" stroke-width="1.2"/>
<text x="862" y="2284" class="value">0.342×</text>
<text x="945" y="2284" class="small">47 cases · 0 with no traced temporary memory</text>
<text x="29" y="2316" class="label">Replace matches (sub)</text>
<circle cx="493.60" cy="2312" r="5" fill="#047857" stroke="#ffffff" stroke-width="1.2"/>
<text x="862" y="2316" class="value">0.225×</text>
<text x="945" y="2316" class="small">48 cases · 0 with no traced temporary memory</text>
<text x="29" y="2348" class="label">Replace and count matches (subn)</text>
<circle cx="481.53" cy="2344" r="5" fill="#047857" stroke="#ffffff" stroke-width="1.2"/>
<text x="862" y="2348" class="value">0.204×</text>
<text x="945" y="2348" class="small">47 cases · 0 with no traced temporary memory</text>
<text x="26" y="2409" class="small">These values describe Python-traced temporary allocations only. They do not measure process memory, RSS, Rust allocator use, or total memory.</text>
<text x="26" y="2424" class="small">A 0.000× median means no Python-traced temporary allocation; its dot is shown at the left edge, without dropping any zero.</text>
</svg>
