<svg xmlns="http://www.w3.org/2000/svg" viewBox="0 0 920 352" width="920" height="352">
<rect width="100%" height="100%" fill="#ffffff"/>
<style>text{font-family:ui-sans-serif,system-ui,sans-serif;fill:#1f2937}.title{font-size:20px;font-weight:700}.small{font-size:12px}.label{font-size:15px;font-weight:600}</style>
<text x="24" y="32" class="title">Replacement compatibility: before and after the fix</text>
<text x="24" y="54" class="small">Each engine is checked on 13,000 text, bytes, buffer, callback, empty, and error cases. Green means the result matches Python re.</text>
<text x="118" y="110" text-anchor="end" class="label">Native C</text>
<rect x="132" y="82" width="688" height="16" rx="3" fill="#f3f4f6"/>
<rect x="132" y="82" width="350.1" height="16" rx="3" fill="#dc2626" opacity="0.85"/>
<text x="138" y="94" class="small" fill="#ffffff">Before</text>
<text x="828" y="94" class="small">6,616/13,000</text>
<rect x="132" y="105" width="688" height="16" rx="3" fill="#f3f4f6"/>
<rect x="132" y="105" width="688.0" height="16" rx="3" fill="#16a34a" opacity="0.85"/>
<text x="138" y="117" class="small" fill="#ffffff">After</text>
<text x="828" y="117" class="small">13,000/13,000</text>
<text x="118" y="182" text-anchor="end" class="label">Python</text>
<rect x="132" y="154" width="688" height="16" rx="3" fill="#f3f4f6"/>
<rect x="132" y="154" width="351.8" height="16" rx="3" fill="#dc2626" opacity="0.85"/>
<text x="138" y="166" class="small" fill="#ffffff">Before</text>
<text x="828" y="166" class="small">6,648/13,000</text>
<rect x="132" y="177" width="688" height="16" rx="3" fill="#f3f4f6"/>
<rect x="132" y="177" width="688.0" height="16" rx="3" fill="#16a34a" opacity="0.85"/>
<text x="138" y="189" class="small" fill="#ffffff">After</text>
<text x="828" y="189" class="small">13,000/13,000</text>
<text x="118" y="254" text-anchor="end" class="label">Rust</text>
<rect x="132" y="226" width="688" height="16" rx="3" fill="#f3f4f6"/>
<rect x="132" y="226" width="351.8" height="16" rx="3" fill="#dc2626" opacity="0.85"/>
<text x="138" y="238" class="small" fill="#ffffff">Before</text>
<text x="828" y="238" class="small">6,648/13,000</text>
<rect x="132" y="249" width="688" height="16" rx="3" fill="#f3f4f6"/>
<rect x="132" y="249" width="688.0" height="16" rx="3" fill="#16a34a" opacity="0.85"/>
<text x="138" y="261" class="small" fill="#ffffff">After</text>
<text x="828" y="261" class="small">13,000/13,000</text>
<text x="24" y="336" class="small">Initial mismatches: 19,088. Final mismatches: 0.</text>
</svg>
