<svg xmlns="http://www.w3.org/2000/svg" width="1120" height="670" viewBox="0 0 1120 670" role="img" aria-labelledby="clear-v6-rankings-title clear-v6-rankings-description">
<title id="clear-v6-rankings-title">How the current engines compare</title>
<desc id="clear-v6-rankings-description">The actual independently replayed public ranking shows every current engine, measured confidence interval, faster case, and slowdown. Public benchmark only; fresh final test unopened; no final winner.</desc>
<style>text{font-family:Inter,ui-sans-serif,system-ui,-apple-system,BlinkMacSystemFont,'Segoe UI',sans-serif;fill:#17263b}.eyebrow{font-size:12px;font-weight:720;letter-spacing:1.7px;fill:#58718c}.title{font-size:32px;font-weight:760;letter-spacing:-.8px}.subtitle{font-size:14px;fill:#607087}.heading{font-size:17px;font-weight:720}.body{font-size:13px;fill:#46586d}.label{font-size:15px;font-weight:690}.value{font-size:15px;font-weight:730}.big{font-size:32px;font-weight:760;letter-spacing:-.6px}.small{font-size:11.5px;fill:#65768a}.tick{font-size:11px;fill:#718299}.footer{font-size:12px;font-weight:620;fill:#58718c}</style>
<rect x="0.00" y="0.00" width="1120.00" height="670.00" rx="0.00" fill="#f5f7fb"/>
<rect x="24.00" y="20.00" width="1072.00" height="630.00" rx="20.00" fill="#ffffff"/>
<text x="56.00" y="57.00" class="eyebrow">INDEPENDENTLY VERIFIED · CURRENT PUBLIC BENCHMARK</text>
<text x="54.00" y="101.00" class="title">How the current engines compare</text>
<text x="56.00" y="126.00" class="subtitle">Ranked only by this measured public comparison; the final test is unopened.</text>
<line x1="337.51" y1="213.00" x2="337.51" y2="456.00" stroke="#e9edf3" stroke-width="1.00" stroke-dasharray="0"/>
<text x="337.51" y="473.00" class="tick" text-anchor="middle">0.75×</text>
<line x1="503.15" y1="213.00" x2="503.15" y2="456.00" stroke="#7d8fa3" stroke-width="1.60" stroke-dasharray="0"/>
<text x="503.15" y="473.00" class="tick" text-anchor="middle">1×</text>
<line x1="631.64" y1="213.00" x2="631.64" y2="456.00" stroke="#e9edf3" stroke-width="1.00" stroke-dasharray="0"/>
<text x="631.64" y="473.00" class="tick" text-anchor="middle">1.25×</text>
<line x1="736.62" y1="213.00" x2="736.62" y2="456.00" stroke="#8a72bb" stroke-width="1.60" stroke-dasharray="5 5"/>
<text x="736.62" y="473.00" class="tick" text-anchor="middle">1.5×</text>
<text x="503.15" y="203.00" class="small" text-anchor="middle">Python · 1×</text>
<text x="736.62" y="203.00" class="small" text-anchor="middle">1.5× target</text>
<text x="64.00" y="259.00" class="small">01</text>
<text x="105.00" y="258.00" class="label">Zig</text>
<text x="105.00" y="276.00" class="small">4,680/8,192 clearly faster</text>
<line x1="609.24" y1="254.00" x2="620.45" y2="254.00" stroke="#7766c9" stroke-width="5.00" stroke-linecap="round"/>
<line x1="609.24" y1="246.00" x2="609.24" y2="262.00" stroke="#7766c9" stroke-width="2.00"/>
<line x1="620.45" y1="246.00" x2="620.45" y2="262.00" stroke="#7766c9" stroke-width="2.00"/>
<circle cx="614.69" cy="254.00" r="7" fill="#7766c9" stroke="#ffffff" stroke-width="2"/>
<text x="813.00" y="252.00" class="value">1.214×</text>
<text x="813.00" y="271.00" class="small">1.202–1.226×</text>
<text x="955.00" y="258.00" class="small">1,401 losses</text>
<text x="64.00" y="337.00" class="small">02</text>
<text x="105.00" y="336.00" class="label">C</text>
<text x="105.00" y="354.00" class="small">4,511/8,192 clearly faster</text>
<line x1="565.32" y1="332.00" x2="575.91" y2="332.00" stroke="#238b86" stroke-width="5.00" stroke-linecap="round"/>
<line x1="565.32" y1="324.00" x2="565.32" y2="340.00" stroke="#238b86" stroke-width="2.00"/>
<line x1="575.91" y1="324.00" x2="575.91" y2="340.00" stroke="#238b86" stroke-width="2.00"/>
<circle cx="570.58" cy="332.00" r="7" fill="#238b86" stroke="#ffffff" stroke-width="2"/>
<text x="813.00" y="330.00" class="value">1.124×</text>
<text x="813.00" y="349.00" class="small">1.114–1.135×</text>
<text x="955.00" y="336.00" class="small">1,433 losses</text>
<text x="64.00" y="415.00" class="small">03</text>
<text x="105.00" y="414.00" class="label">Rust</text>
<text x="105.00" y="432.00" class="small">2,444/8,192 clearly faster</text>
<line x1="472.19" y1="410.00" x2="484.01" y2="410.00" stroke="#d17852" stroke-width="5.00" stroke-linecap="round"/>
<line x1="472.19" y1="402.00" x2="472.19" y2="418.00" stroke="#d17852" stroke-width="2.00"/>
<line x1="484.01" y1="402.00" x2="484.01" y2="418.00" stroke="#d17852" stroke-width="2.00"/>
<circle cx="477.94" cy="410.00" r="7" fill="#d17852" stroke="#ffffff" stroke-width="2"/>
<text x="813.00" y="408.00" class="value">0.957×</text>
<text x="813.00" y="427.00" class="small">0.948–0.967×</text>
<text x="955.00" y="414.00" class="small">3,106 losses</text>
<rect x="58.00" y="501.00" width="1001.00" height="66.00" rx="12.00" fill="#f4f6fb"/>
<text x="75.00" y="528.00" class="heading">No engine meets both public speed targets.</text>
<text x="75.00" y="550.00" class="body">This public comparison does not qualify a final winner.</text>
<line x1="56.00" y1="604.00" x2="1064.00" y2="604.00" stroke="#e6ebf2" stroke-width="1.00"/>
<text x="56.00" y="631.00" class="footer">Public benchmark only; fresh final test unopened; no final winner.</text>
<text x="1064.00" y="631.00" class="small" text-anchor="end">8,192 public cases · 13 paired trials</text>
</svg>
