<svg xmlns="http://www.w3.org/2000/svg" width="1180" height="1102" viewBox="0 0 1180 1102"><rect width="100%" height="100%" fill="#fff"/><style>text{font-family:system-ui,-apple-system,Segoe UI,sans-serif;fill:#172033}.title{font-size:23px;font-weight:700}.sub{font-size:14px;fill:#52627a}.head{font-size:11px;font-weight:700;fill:#41506a}.label{font-size:12px}.number{font-size:12px;text-anchor:end;font-variant-numeric:tabular-nums}.strong{font-size:12px;text-anchor:end;font-weight:700}.grid{stroke:#dbe1eb;stroke-width:1}</style><text x="24" y="38" class="title">How the Zig experiment compares with Python re</text><text x="24" y="64" class="sub">Overall on 1,224 unseen tasks: 0.447× as fast (0.434–0.462× measured range) · 78 clearly faster · 992 large slowdowns</text><text x="24" y="87" class="sub">Rows show the 36 balanced task families (1,152 tasks); the other 72 varied tasks are retained in the detailed graphs and raw results. Every timed result was checked.</text><text x="24" y="121" class="head">KIND OF TASK</text><text x="610" y="121" class="head" text-anchor="end">TASKS</text><text x="735" y="121" class="head" text-anchor="end">SPEED · 95% RANGE</text><text x="866" y="121" class="head" text-anchor="middle">SLOWER ← 1× → FASTER</text><line x1="866" y1="139" x2="866" y2="1080" stroke="#7f8fa7" stroke-width="1.3"/><rect x="16" y="148" width="1148" height="25" fill="#f5f7fb"/><line x1="16" y1="173" x2="1164" y2="173" class="grid"/><text x="24" y="164" class="label">Compile a new expression</text><text x="610" y="164" class="number">32</text><text x="735" y="164" class="strong" fill="#238b64">1.744× · 1.736–1.751×</text><rect x="866.0" y="153" width="80.1" height="12" rx="2.5" fill="#238b64"/><line x1="16" y1="198" x2="1164" y2="198" class="grid"/><text x="24" y="189" class="label">Cleanup</text><text x="610" y="189" class="number">32</text><text x="735" y="189" class="strong" fill="#238b64">1.196× · 1.123–1.285×</text><rect x="866.0" y="178" width="25.8" height="12" rx="2.5" fill="#238b64"/><rect x="16" y="198" width="1148" height="25" fill="#f5f7fb"/><line x1="16" y1="223" x2="1164" y2="223" class="grid"/><text x="24" y="214" class="label">Split keep</text><text x="610" y="214" class="number">32</text><text x="735" y="214" class="strong" fill="#8995a7">1.018× · 0.958–1.081×</text><rect x="866.0" y="203" width="2.6" height="12" rx="2.5" fill="#8995a7"/><line x1="16" y1="248" x2="1164" y2="248" class="grid"/><text x="24" y="239" class="label">Escape</text><text x="610" y="239" class="number">32</text><text x="735" y="239" class="strong" fill="#8995a7">0.988× · 0.978–0.997×</text><rect x="864.3" y="228" width="1.7" height="12" rx="2.5" fill="#8995a7"/><rect x="16" y="248" width="1148" height="25" fill="#f5f7fb"/><line x1="16" y1="273" x2="1164" y2="273" class="grid"/><text x="24" y="264" class="label">Replace groups</text><text x="610" y="264" class="number">32</text><text x="735" y="264" class="strong" fill="#c84c4c">0.765× · 0.729–0.803×</text><rect x="827.5" y="253" width="38.5" height="12" rx="2.5" fill="#c84c4c"/><line x1="16" y1="298" x2="1164" y2="298" class="grid"/><text x="24" y="289" class="label">Find byte tokens</text><text x="610" y="289" class="number">32</text><text x="735" y="289" class="strong" fill="#c84c4c">0.765× · 0.727–0.804×</text><rect x="827.4" y="278" width="38.6" height="12" rx="2.5" fill="#c84c4c"/><rect x="16" y="298" width="1148" height="25" fill="#f5f7fb"/><line x1="16" y1="323" x2="1164" y2="323" class="grid"/><text x="24" y="314" class="label">Module replace</text><text x="610" y="314" class="number">32</text><text x="735" y="314" class="strong" fill="#c84c4c">0.764× · 0.733–0.794×</text><rect x="827.1" y="303" width="38.9" height="12" rx="2.5" fill="#c84c4c"/><line x1="16" y1="348" x2="1164" y2="348" class="grid"/><text x="24" y="339" class="label">Formatted lines</text><text x="610" y="339" class="number">32</text><text x="735" y="339" class="strong" fill="#c84c4c">0.736× · 0.677–0.800×</text><rect x="821.9" y="328" width="44.1" height="12" rx="2.5" fill="#c84c4c"/><rect x="16" y="348" width="1148" height="25" fill="#f5f7fb"/><line x1="16" y1="373" x2="1164" y2="373" class="grid"/><text x="24" y="364" class="label">Findall tokens</text><text x="610" y="364" class="number">32</text><text x="735" y="364" class="strong" fill="#c84c4c">0.721× · 0.673–0.773×</text><rect x="818.8" y="353" width="47.2" height="12" rx="2.5" fill="#c84c4c"/><line x1="16" y1="398" x2="1164" y2="398" class="grid"/><text x="24" y="389" class="label">Find Unicode words and emoji</text><text x="610" y="389" class="number">32</text><text x="735" y="389" class="strong" fill="#c84c4c">0.653× · 0.635–0.672×</text><rect x="804.7" y="378" width="61.3" height="12" rx="2.5" fill="#c84c4c"/><rect x="16" y="398" width="1148" height="25" fill="#f5f7fb"/><line x1="16" y1="423" x2="1164" y2="423" class="grid"/><text x="24" y="414" class="label">Structured text</text><text x="610" y="414" class="number">32</text><text x="735" y="414" class="strong" fill="#c84c4c">0.643× · 0.618–0.669×</text><rect x="802.4" y="403" width="63.6" height="12" rx="2.5" fill="#c84c4c"/><line x1="16" y1="448" x2="1164" y2="448" class="grid"/><text x="24" y="439" class="label">Bytes replace</text><text x="610" y="439" class="number">32</text><text x="735" y="439" class="strong" fill="#c84c4c">0.628× · 0.580–0.681×</text><rect x="799.1" y="428" width="66.9" height="12" rx="2.5" fill="#c84c4c"/><rect x="16" y="448" width="1148" height="25" fill="#f5f7fb"/><line x1="16" y1="473" x2="1164" y2="473" class="grid"/><text x="24" y="464" class="label">Window collection</text><text x="610" y="464" class="number">32</text><text x="735" y="464" class="strong" fill="#c84c4c">0.627× · 0.572–0.688×</text><rect x="798.8" y="453" width="67.2" height="12" rx="2.5" fill="#c84c4c"/><line x1="16" y1="498" x2="1164" y2="498" class="grid"/><text x="24" y="489" class="label">Ascii mode</text><text x="610" y="489" class="number">32</text><text x="735" y="489" class="strong" fill="#c84c4c">0.608× · 0.592–0.624×</text><rect x="794.3" y="478" width="71.7" height="12" rx="2.5" fill="#c84c4c"/><rect x="16" y="498" width="1148" height="25" fill="#f5f7fb"/><line x1="16" y1="523" x2="1164" y2="523" class="grid"/><text x="24" y="514" class="label">Whole check</text><text x="610" y="514" class="number">32</text><text x="735" y="514" class="strong" fill="#c84c4c">0.547× · 0.489–0.621×</text><rect x="779.1" y="503" width="86.9" height="12" rx="2.5" fill="#c84c4c"/><line x1="16" y1="548" x2="1164" y2="548" class="grid"/><text x="24" y="539" class="label">Branch control</text><text x="610" y="539" class="number">32</text><text x="735" y="539" class="strong" fill="#c84c4c">0.507× · 0.446–0.576×</text><rect x="768.0" y="528" width="98.0" height="12" rx="2.5" fill="#c84c4c"/><rect x="16" y="548" width="1148" height="25" fill="#f5f7fb"/><line x1="16" y1="573" x2="1164" y2="573" class="grid"/><text x="24" y="564" class="label">Case-insensitive Unicode</text><text x="610" y="564" class="number">32</text><text x="735" y="564" class="strong" fill="#c84c4c">0.488× · 0.482–0.493×</text><rect x="762.5" y="553" width="103.5" height="12" rx="2.5" fill="#c84c4c"/><line x1="16" y1="598" x2="1164" y2="598" class="grid"/><text x="24" y="589" class="label">Nearby capture</text><text x="610" y="589" class="number">32</text><text x="735" y="589" class="strong" fill="#c84c4c">0.480× · 0.424–0.541×</text><rect x="760.1" y="578" width="105.9" height="12" rx="2.5" fill="#c84c4c"/><rect x="16" y="598" width="1148" height="25" fill="#f5f7fb"/><line x1="16" y1="623" x2="1164" y2="623" class="grid"/><text x="24" y="614" class="label">Empty iterator</text><text x="610" y="614" class="number">32</text><text x="735" y="614" class="strong" fill="#c84c4c">0.397× · 0.393–0.402×</text><rect x="733.0" y="603" width="133.0" height="12" rx="2.5" fill="#c84c4c"/><line x1="16" y1="648" x2="1164" y2="648" class="grid"/><text x="24" y="639" class="label">Request records</text><text x="610" y="639" class="number">32</text><text x="735" y="639" class="strong" fill="#c84c4c">0.395× · 0.390–0.399×</text><rect x="732.0" y="628" width="134.0" height="12" rx="2.5" fill="#c84c4c"/><rect x="16" y="648" width="1148" height="25" fill="#f5f7fb"/><line x1="16" y1="673" x2="1164" y2="673" class="grid"/><text x="24" y="664" class="label">Module search</text><text x="610" y="664" class="number">32</text><text x="735" y="664" class="strong" fill="#c84c4c">0.392× · 0.386–0.397×</text><rect x="731.0" y="653" width="135.0" height="12" rx="2.5" fill="#c84c4c"/><line x1="16" y1="698" x2="1164" y2="698" class="grid"/><text x="24" y="689" class="label">Finditer pairs</text><text x="610" y="689" class="number">32</text><text x="735" y="689" class="strong" fill="#c84c4c">0.383× · 0.380–0.385×</text><rect x="727.6" y="678" width="138.4" height="12" rx="2.5" fill="#c84c4c"/><rect x="16" y="698" width="1148" height="25" fill="#f5f7fb"/><line x1="16" y1="723" x2="1164" y2="723" class="grid"/><text x="24" y="714" class="label">Compile and search</text><text x="610" y="714" class="number">32</text><text x="735" y="714" class="strong" fill="#c84c4c">0.372× · 0.370–0.375×</text><rect x="723.6" y="703" width="142.4" height="12" rx="2.5" fill="#c84c4c"/><line x1="16" y1="748" x2="1164" y2="748" class="grid"/><text x="24" y="739" class="label">Everyday address</text><text x="610" y="739" class="number">32</text><text x="735" y="739" class="strong" fill="#c84c4c">0.354× · 0.333–0.374×</text><rect x="716.2" y="728" width="149.8" height="12" rx="2.5" fill="#c84c4c"/><rect x="16" y="748" width="1148" height="25" fill="#f5f7fb"/><line x1="16" y1="773" x2="1164" y2="773" class="grid"/><text x="24" y="764" class="label">Replace callback</text><text x="610" y="764" class="number">32</text><text x="735" y="764" class="strong" fill="#c84c4c">0.318× · 0.294–0.341×</text><rect x="700.9" y="753" width="165.1" height="12" rx="2.5" fill="#c84c4c"/><line x1="16" y1="798" x2="1164" y2="798" class="grid"/><text x="24" y="789" class="label">Verbose dotall</text><text x="610" y="789" class="number">32</text><text x="735" y="789" class="strong" fill="#c84c4c">0.305× · 0.283–0.330×</text><rect x="694.9" y="778" width="171.1" height="12" rx="2.5" fill="#c84c4c"/><rect x="16" y="798" width="1148" height="25" fill="#f5f7fb"/><line x1="16" y1="823" x2="1164" y2="823" class="grid"/><text x="24" y="814" class="label">Search an input slice</text><text x="610" y="814" class="number">32</text><text x="735" y="814" class="strong" fill="#c84c4c">0.291× · 0.288–0.294×</text><rect x="688.2" y="803" width="177.8" height="12" rx="2.5" fill="#c84c4c"/><line x1="16" y1="848" x2="1164" y2="848" class="grid"/><text x="24" y="839" class="label">References</text><text x="610" y="839" class="number">32</text><text x="735" y="839" class="strong" fill="#c84c4c">0.274× · 0.267–0.282×</text><rect x="679.6" y="828" width="186.4" height="12" rx="2.5" fill="#c84c4c"/><rect x="16" y="848" width="1148" height="25" fill="#f5f7fb"/><line x1="16" y1="873" x2="1164" y2="873" class="grid"/><text x="24" y="864" class="label">Long ending</text><text x="610" y="864" class="number">32</text><text x="735" y="864" class="strong" fill="#c84c4c">0.263× · 0.252–0.275×</text><rect x="673.7" y="853" width="192.3" height="12" rx="2.5" fill="#c84c4c"/><line x1="16" y1="898" x2="1164" y2="898" class="grid"/><text x="24" y="889" class="label">Conditionals</text><text x="610" y="889" class="number">32</text><text x="735" y="889" class="strong" fill="#c84c4c">0.247× · 0.242–0.250×</text><rect x="664.2" y="878" width="201.8" height="12" rx="2.5" fill="#c84c4c"/><rect x="16" y="898" width="1148" height="25" fill="#f5f7fb"/><line x1="16" y1="923" x2="1164" y2="923" class="grid"/><text x="24" y="914" class="label">Prefix check</text><text x="610" y="914" class="number">32</text><text x="735" y="914" class="strong" fill="#c84c4c">0.237× · 0.230–0.245×</text><rect x="658.5" y="903" width="207.5" height="12" rx="2.5" fill="#c84c4c"/><line x1="16" y1="948" x2="1164" y2="948" class="grid"/><text x="24" y="939" class="label">Search for an absent word</text><text x="610" y="939" class="number">32</text><text x="735" y="939" class="strong" fill="#c84c4c">0.229× · 0.218–0.241×</text><rect x="653.5" y="928" width="212.5" height="12" rx="2.5" fill="#c84c4c"/><rect x="16" y="948" width="1148" height="25" fill="#f5f7fb"/><line x1="16" y1="973" x2="1164" y2="973" class="grid"/><text x="24" y="964" class="label">Iterate over byte buffers</text><text x="610" y="964" class="number">32</text><text x="735" y="964" class="strong" fill="#c84c4c">0.224× · 0.221–0.227×</text><rect x="650.3" y="953" width="215.7" height="12" rx="2.5" fill="#c84c4c"/><line x1="16" y1="998" x2="1164" y2="998" class="grid"/><text x="24" y="989" class="label">Find a present word</text><text x="610" y="989" class="number">32</text><text x="735" y="989" class="strong" fill="#c84c4c">0.186× · 0.179–0.193×</text><rect x="623.3" y="978" width="242.7" height="12" rx="2.5" fill="#c84c4c"/><rect x="16" y="998" width="1148" height="25" fill="#f5f7fb"/><line x1="16" y1="1023" x2="1164" y2="1023" class="grid"/><text x="24" y="1014" class="label">Scanner text</text><text x="610" y="1014" class="number">32</text><text x="735" y="1014" class="strong" fill="#c84c4c">0.185× · 0.184–0.188×</text><rect x="623.1" y="1003" width="242.9" height="12" rx="2.5" fill="#c84c4c"/><line x1="16" y1="1048" x2="1164" y2="1048" class="grid"/><text x="24" y="1039" class="label">Scanner bytes</text><text x="610" y="1039" class="number">32</text><text x="735" y="1039" class="strong" fill="#c84c4c">0.147× · 0.140–0.155×</text><rect x="590.0" y="1028" width="276.0" height="12" rx="2.5" fill="#c84c4c"/></svg>
