<svg xmlns="http://www.w3.org/2000/svg" width="1220" height="1343" viewBox="0 0 1220 1343" role="img" aria-label="Where Zig / rebar is fast and slow"><rect width="100%" height="100%" fill="#fff"/><style>text{font-family:system-ui,-apple-system,Segoe UI,sans-serif;fill:#172033}.title{font-size:24px;font-weight:700}.sub{font-size:13px;fill:#52627a}.head{font-size:16px;font-weight:700}.label{font-size:12px}.small{font-size:11px;fill:#52627a}.value{font-size:12px;font-weight:700}.tick{font-size:11px;fill:#64748b}.grid{stroke:#dde5ed;stroke-width:1}.base{stroke:#64748b;stroke-width:1.4}</style><text x="24" y="38" class="title">Where Zig / rebar is fast and slow</text><text x="24" y="61" class="sub">The first row combines all earlier tasks; every other row is one of the 48 new workload types. 1× is Python re; farther right is faster.</text><line x1="266.0" y1="100" x2="266.0" y2="1329" class="grid"/><text x="266.0" y="94" class="tick" text-anchor="middle">.1×</text><line x1="363.3" y1="100" x2="363.3" y2="1329" class="grid"/><text x="363.3" y="94" class="tick" text-anchor="middle">.3×</text><line x1="470.0" y1="100" x2="470.0" y2="1329" class="base"/><text x="470.0" y="94" class="tick" text-anchor="middle">1× Python re</text><line x1="567.3" y1="100" x2="567.3" y2="1329" class="grid"/><text x="567.3" y="94" class="tick" text-anchor="middle">3×</text><line x1="674.0" y1="100" x2="674.0" y2="1329" class="grid"/><text x="674.0" y="94" class="tick" text-anchor="middle">10×</text><line x1="771.3" y1="100" x2="771.3" y2="1329" class="grid"/><text x="771.3" y="94" class="tick" text-anchor="middle">30×</text><line x1="878.0" y1="100" x2="878.0" y2="1329" class="grid"/><text x="878.0" y="94" class="tick" text-anchor="middle">100×</text><text x="24" y="126" class="label">Earlier Workloads</text><line x1="516.2" y1="122" x2="522.8" y2="122" stroke="#dc2626" stroke-width="3" stroke-linecap="round"/><circle cx="519.5" cy="122" r="3.5" fill="#dc2626"/><text x="900" y="126" class="value">1.75×</text><text x="978" y="126" class="small">2971/3144 faster · 2 slow</text><text x="24" y="151" class="label">Atomic Alternatives</text><line x1="534.6" y1="147" x2="539.2" y2="147" stroke="#059669" stroke-width="3" stroke-linecap="round"/><circle cx="536.9" cy="147" r="3.5" fill="#059669"/><text x="900" y="151" class="value">2.13×</text><text x="978" y="151" class="small">64/64 faster · 0 slow</text><text x="24" y="176" class="label">Backref Named</text><line x1="473.9" y1="172" x2="479.2" y2="172" stroke="#059669" stroke-width="3" stroke-linecap="round"/><circle cx="476.5" cy="172" r="3.5" fill="#059669"/><text x="900" y="176" class="value">1.08×</text><text x="978" y="176" class="small">42/64 faster · 0 slow</text><text x="24" y="201" class="label">Boundary Positions</text><line x1="494.3" y1="197" x2="499.8" y2="197" stroke="#059669" stroke-width="3" stroke-linecap="round"/><circle cx="497.0" cy="197" r="3.5" fill="#059669"/><text x="900" y="201" class="value">1.36×</text><text x="978" y="201" class="small">64/64 faster · 0 slow</text><text x="24" y="226" class="label">Bounded Repeats</text><line x1="496.7" y1="222" x2="503.1" y2="222" stroke="#059669" stroke-width="3" stroke-linecap="round"/><circle cx="500.0" cy="222" r="3.5" fill="#059669"/><text x="900" y="226" class="value">1.40×</text><text x="978" y="226" class="small">64/64 faster · 0 slow</text><text x="24" y="251" class="label">Buffer Tokenize</text><line x1="481.1" y1="247" x2="488.6" y2="247" stroke="#059669" stroke-width="3" stroke-linecap="round"/><circle cx="484.8" cy="247" r="3.5" fill="#059669"/><text x="900" y="251" class="value">1.18×</text><text x="978" y="251" class="small">56/64 faster · 0 slow</text><text x="24" y="276" class="label">Byte Highbit</text><line x1="483.8" y1="272" x2="490.4" y2="272" stroke="#059669" stroke-width="3" stroke-linecap="round"/><circle cx="487.0" cy="272" r="3.5" fill="#059669"/><text x="900" y="276" class="value">1.21×</text><text x="978" y="276" class="small">57/64 faster · 0 slow</text><text x="24" y="301" class="label">Cold Compile</text><line x1="607.0" y1="297" x2="612.4" y2="297" stroke="#059669" stroke-width="3" stroke-linecap="round"/><circle cx="609.8" cy="297" r="3.5" fill="#059669"/><text x="900" y="301" class="value">4.85×</text><text x="978" y="301" class="small">64/64 faster · 0 slow</text><text x="24" y="326" class="label">Combining Wide</text><line x1="527.1" y1="322" x2="533.0" y2="322" stroke="#059669" stroke-width="3" stroke-linecap="round"/><circle cx="530.0" cy="322" r="3.5" fill="#059669"/><text x="900" y="326" class="value">1.97×</text><text x="978" y="326" class="small">64/64 faster · 0 slow</text><text x="24" y="351" class="label">Conditionals Nested</text><line x1="505.1" y1="347" x2="511.1" y2="347" stroke="#059669" stroke-width="3" stroke-linecap="round"/><circle cx="508.1" cy="347" r="3.5" fill="#059669"/><text x="900" y="351" class="value">1.54×</text><text x="978" y="351" class="small">64/64 faster · 0 slow</text><text x="24" y="376" class="label">Config Lines</text><line x1="474.7" y1="372" x2="480.1" y2="372" stroke="#059669" stroke-width="3" stroke-linecap="round"/><circle cx="477.3" cy="372" r="3.5" fill="#059669"/><text x="900" y="376" class="value">1.09×</text><text x="978" y="376" class="small">47/64 faster · 0 slow</text><text x="24" y="401" class="label">Csv Split Even</text><line x1="708.0" y1="397" x2="714.5" y2="397" stroke="#059669" stroke-width="3" stroke-linecap="round"/><circle cx="711.5" cy="397" r="3.5" fill="#059669"/><text x="900" y="401" class="value">15.3×</text><text x="978" y="401" class="small">64/64 faster · 0 slow</text><text x="24" y="426" class="label">Dates Zones</text><line x1="512.6" y1="422" x2="517.1" y2="422" stroke="#059669" stroke-width="3" stroke-linecap="round"/><circle cx="515.0" cy="422" r="3.5" fill="#059669"/><text x="900" y="426" class="value">1.66×</text><text x="978" y="426" class="small">64/64 faster · 0 slow</text><text x="24" y="451" class="label">Dense Class Finditer</text><line x1="518.0" y1="447" x2="524.5" y2="447" stroke="#059669" stroke-width="3" stroke-linecap="round"/><circle cx="521.2" cy="447" r="3.5" fill="#059669"/><text x="900" y="451" class="value">1.78×</text><text x="978" y="451" class="small">64/64 faster · 0 slow</text><text x="24" y="476" class="label">Dense Literal Findall</text><line x1="468.4" y1="472" x2="477.5" y2="472" stroke="#059669" stroke-width="3" stroke-linecap="round"/><circle cx="472.8" cy="472" r="3.5" fill="#059669"/><text x="900" y="476" class="value">1.03×</text><text x="978" y="476" class="small">30/64 faster · 0 slow</text><text x="24" y="501" class="label">Email Mixed</text><line x1="489.0" y1="497" x2="494.2" y2="497" stroke="#059669" stroke-width="3" stroke-linecap="round"/><circle cx="491.8" cy="497" r="3.5" fill="#059669"/><text x="900" y="501" class="value">1.28×</text><text x="978" y="501" class="small">54/64 faster · 0 slow</text><text x="24" y="526" class="label">Error Stack</text><line x1="494.5" y1="522" x2="500.8" y2="522" stroke="#059669" stroke-width="3" stroke-linecap="round"/><circle cx="497.8" cy="522" r="3.5" fill="#059669"/><text x="900" y="526" class="value">1.37×</text><text x="978" y="526" class="small">64/64 faster · 0 slow</text><text x="24" y="551" class="label">Escape Mixed</text><line x1="468.2" y1="547" x2="472.9" y2="547" stroke="#059669" stroke-width="3" stroke-linecap="round"/><circle cx="470.4" cy="547" r="3.5" fill="#059669"/><text x="900" y="551" class="value">1.00×</text><text x="978" y="551" class="small">2/64 faster · 0 slow</text><text x="24" y="576" class="label">File Names</text><line x1="531.5" y1="572" x2="536.5" y2="572" stroke="#059669" stroke-width="3" stroke-linecap="round"/><circle cx="534.1" cy="572" r="3.5" fill="#059669"/><text x="900" y="576" class="value">2.06×</text><text x="978" y="576" class="small">64/64 faster · 0 slow</text><text x="24" y="601" class="label">Fullmatch Structured</text><line x1="520.7" y1="597" x2="524.7" y2="597" stroke="#059669" stroke-width="3" stroke-linecap="round"/><circle cx="522.7" cy="597" r="3.5" fill="#059669"/><text x="900" y="601" class="value">1.81×</text><text x="978" y="601" class="small">64/64 faster · 0 slow</text><text x="24" y="626" class="label">Html Attributes</text><line x1="474.0" y1="622" x2="480.5" y2="622" stroke="#059669" stroke-width="3" stroke-linecap="round"/><circle cx="477.2" cy="622" r="3.5" fill="#059669"/><text x="900" y="626" class="value">1.09×</text><text x="978" y="626" class="small">50/64 faster · 0 slow</text><text x="24" y="651" class="label">Http Headers</text><line x1="501.7" y1="647" x2="507.7" y2="647" stroke="#059669" stroke-width="3" stroke-linecap="round"/><circle cx="504.7" cy="647" r="3.5" fill="#059669"/><text x="900" y="651" class="value">1.48×</text><text x="978" y="651" class="small">64/64 faster · 0 slow</text><text x="24" y="676" class="label">Inline Modes</text><line x1="512.3" y1="672" x2="518.0" y2="672" stroke="#059669" stroke-width="3" stroke-linecap="round"/><circle cx="515.1" cy="672" r="3.5" fill="#059669"/><text x="900" y="676" class="value">1.66×</text><text x="978" y="676" class="small">64/64 faster · 0 slow</text><text x="24" y="701" class="label">Lookahead Chain</text><line x1="488.7" y1="697" x2="495.2" y2="697" stroke="#059669" stroke-width="3" stroke-linecap="round"/><circle cx="492.0" cy="697" r="3.5" fill="#059669"/><text x="900" y="701" class="value">1.28×</text><text x="978" y="701" class="small">64/64 faster · 0 slow</text><text x="24" y="726" class="label">Lookbehind Chain</text><line x1="525.2" y1="722" x2="530.5" y2="722" stroke="#059669" stroke-width="3" stroke-linecap="round"/><circle cx="528.0" cy="722" r="3.5" fill="#059669"/><text x="900" y="726" class="value">1.92×</text><text x="978" y="726" class="small">64/64 faster · 0 slow</text><text x="24" y="751" class="label">Markdown Code</text><line x1="525.6" y1="747" x2="534.1" y2="747" stroke="#059669" stroke-width="3" stroke-linecap="round"/><circle cx="530.0" cy="747" r="3.5" fill="#059669"/><text x="900" y="751" class="value">1.97×</text><text x="978" y="751" class="small">64/64 faster · 0 slow</text><text x="24" y="776" class="label">Match Access</text><line x1="497.9" y1="772" x2="503.8" y2="772" stroke="#059669" stroke-width="3" stroke-linecap="round"/><circle cx="501.0" cy="772" r="3.5" fill="#059669"/><text x="900" y="776" class="value">1.42×</text><text x="978" y="776" class="small">64/64 faster · 0 slow</text><text x="24" y="801" class="label">Match Short</text><line x1="468.1" y1="797" x2="475.2" y2="797" stroke="#059669" stroke-width="3" stroke-linecap="round"/><circle cx="471.7" cy="797" r="3.5" fill="#059669"/><text x="900" y="801" class="value">1.02×</text><text x="978" y="801" class="small">22/64 faster · 0 slow</text><text x="24" y="826" class="label">Module Warm Search</text><line x1="461.0" y1="822" x2="466.4" y2="822" stroke="#059669" stroke-width="3" stroke-linecap="round"/><circle cx="463.8" cy="822" r="3.5" fill="#059669"/><text x="900" y="826" class="value">0.93×</text><text x="978" y="826" class="small">0/64 faster · 0 slow</text><text x="24" y="851" class="label">Module Warm Sub</text><line x1="485.4" y1="847" x2="489.3" y2="847" stroke="#059669" stroke-width="3" stroke-linecap="round"/><circle cx="487.3" cy="847" r="3.5" fill="#059669"/><text x="900" y="851" class="value">1.22×</text><text x="978" y="851" class="small">52/64 faster · 0 slow</text><text x="24" y="876" class="label">Money Units</text><line x1="519.7" y1="872" x2="524.2" y2="872" stroke="#059669" stroke-width="3" stroke-linecap="round"/><circle cx="522.0" cy="872" r="3.5" fill="#059669"/><text x="900" y="876" class="value">1.80×</text><text x="978" y="876" class="small">64/64 faster · 0 slow</text><text x="24" y="901" class="label">Multiline Anchors</text><line x1="473.0" y1="897" x2="477.6" y2="897" stroke="#059669" stroke-width="3" stroke-linecap="round"/><circle cx="475.3" cy="897" r="3.5" fill="#059669"/><text x="900" y="901" class="value">1.06×</text><text x="978" y="901" class="small">51/64 faster · 0 slow</text><text x="24" y="926" class="label">Negative Class</text><line x1="478.4" y1="922" x2="484.9" y2="922" stroke="#059669" stroke-width="3" stroke-linecap="round"/><circle cx="481.9" cy="922" r="3.5" fill="#059669"/><text x="900" y="926" class="value">1.14×</text><text x="978" y="926" class="small">46/64 faster · 0 slow</text><text x="24" y="951" class="label">Nullable Positions</text><line x1="560.5" y1="947" x2="565.7" y2="947" stroke="#059669" stroke-width="3" stroke-linecap="round"/><circle cx="563.1" cy="947" r="3.5" fill="#059669"/><text x="900" y="951" class="value">2.86×</text><text x="978" y="951" class="small">64/64 faster · 0 slow</text><text x="24" y="976" class="label">Path Mixed Bytes</text><line x1="518.1" y1="972" x2="523.2" y2="972" stroke="#059669" stroke-width="3" stroke-linecap="round"/><circle cx="520.8" cy="972" r="3.5" fill="#059669"/><text x="900" y="976" class="value">1.77×</text><text x="978" y="976" class="small">64/64 faster · 0 slow</text><text x="24" y="1001" class="label">Quote Captures</text><line x1="539.4" y1="997" x2="546.0" y2="997" stroke="#059669" stroke-width="3" stroke-linecap="round"/><circle cx="542.9" cy="997" r="3.5" fill="#059669"/><text x="900" y="1001" class="value">2.28×</text><text x="978" y="1001" class="small">64/64 faster · 0 slow</text><text x="24" y="1026" class="label">Request Logs</text><line x1="476.9" y1="1022" x2="483.8" y2="1022" stroke="#059669" stroke-width="3" stroke-linecap="round"/><circle cx="480.4" cy="1022" r="3.5" fill="#059669"/><text x="900" y="1026" class="value">1.12×</text><text x="978" y="1026" class="small">58/64 faster · 0 slow</text><text x="24" y="1051" class="label">Scanner Window</text><line x1="482.5" y1="1047" x2="490.6" y2="1047" stroke="#059669" stroke-width="3" stroke-linecap="round"/><circle cx="486.6" cy="1047" r="3.5" fill="#059669"/><text x="900" y="1051" class="value">1.21×</text><text x="978" y="1051" class="small">54/64 faster · 0 slow</text><text x="24" y="1076" class="label">Search Long Hit</text><line x1="611.2" y1="1072" x2="619.3" y2="1072" stroke="#059669" stroke-width="3" stroke-linecap="round"/><circle cx="615.3" cy="1072" r="3.5" fill="#059669"/><text x="900" y="1076" class="value">5.16×</text><text x="978" y="1076" class="small">63/64 faster · 0 slow</text><text x="24" y="1101" class="label">Search Long Miss</text><line x1="622.2" y1="1097" x2="630.6" y2="1097" stroke="#059669" stroke-width="3" stroke-linecap="round"/><circle cx="626.4" cy="1097" r="3.5" fill="#059669"/><text x="900" y="1101" class="value">5.84×</text><text x="978" y="1101" class="small">61/64 faster · 0 slow</text><text x="24" y="1126" class="label">Shared Prefix Alternatives</text><line x1="493.6" y1="1122" x2="507.2" y2="1122" stroke="#059669" stroke-width="3" stroke-linecap="round"/><circle cx="500.3" cy="1122" r="3.5" fill="#059669"/><text x="900" y="1126" class="value">1.41×</text><text x="978" y="1126" class="small">64/64 faster · 0 slow</text><text x="24" y="1151" class="label">Shell Vars</text><line x1="507.1" y1="1147" x2="513.2" y2="1147" stroke="#059669" stroke-width="3" stroke-linecap="round"/><circle cx="510.1" cy="1147" r="3.5" fill="#059669"/><text x="900" y="1151" class="value">1.57×</text><text x="978" y="1151" class="small">64/64 faster · 0 slow</text><text x="24" y="1176" class="label">Source Comments</text><line x1="530.3" y1="1172" x2="535.8" y2="1172" stroke="#059669" stroke-width="3" stroke-linecap="round"/><circle cx="533.1" cy="1172" r="3.5" fill="#059669"/><text x="900" y="1176" class="value">2.04×</text><text x="978" y="1176" class="small">64/64 faster · 0 slow</text><text x="24" y="1201" class="label">Sql Tokens</text><line x1="503.1" y1="1197" x2="509.5" y2="1197" stroke="#059669" stroke-width="3" stroke-linecap="round"/><circle cx="506.3" cy="1197" r="3.5" fill="#059669"/><text x="900" y="1201" class="value">1.51×</text><text x="978" y="1201" class="small">64/64 faster · 0 slow</text><text x="24" y="1226" class="label">Unicode Casefold</text><line x1="550.1" y1="1222" x2="554.5" y2="1222" stroke="#059669" stroke-width="3" stroke-linecap="round"/><circle cx="552.4" cy="1222" r="3.5" fill="#059669"/><text x="900" y="1226" class="value">2.53×</text><text x="978" y="1226" class="small">64/64 faster · 0 slow</text><text x="24" y="1251" class="label">Unicode Word Lines</text><line x1="549.0" y1="1247" x2="552.6" y2="1247" stroke="#059669" stroke-width="3" stroke-linecap="round"/><circle cx="550.9" cy="1247" r="3.5" fill="#059669"/><text x="900" y="1251" class="value">2.49×</text><text x="978" y="1251" class="small">64/64 faster · 0 slow</text><text x="24" y="1276" class="label">Uuid Hash</text><line x1="589.4" y1="1272" x2="594.4" y2="1272" stroke="#059669" stroke-width="3" stroke-linecap="round"/><circle cx="592.0" cy="1272" r="3.5" fill="#059669"/><text x="900" y="1276" class="value">3.96×</text><text x="978" y="1276" class="small">64/64 faster · 0 slow</text><text x="24" y="1301" class="label">Version Tags</text><line x1="485.7" y1="1297" x2="490.6" y2="1297" stroke="#059669" stroke-width="3" stroke-linecap="round"/><circle cx="488.0" cy="1297" r="3.5" fill="#059669"/><text x="900" y="1301" class="value">1.22×</text><text x="978" y="1301" class="small">64/64 faster · 0 slow</text><text x="24" y="1326" class="label">Windowed Collect</text><line x1="492.8" y1="1322" x2="500.0" y2="1322" stroke="#059669" stroke-width="3" stroke-linecap="round"/><circle cx="496.6" cy="1322" r="3.5" fill="#059669"/><text x="900" y="1326" class="value">1.35×</text><text x="978" y="1326" class="small">55/64 faster · 0 slow</text></svg>
